<svg width="62" height="62" viewBox="0 0 62 62" fill="none" xmlns="http://www.w3.org/2000/svg">
<path d="M57.2513 4.00397C55.1425 1.89522 52.4694 0.558653 49.5228 0.138653C45.2331 -0.469472 41.0025 0.941466 37.9422 4.00397C37.0869 4.85928 37.0869 6.24397 37.9422 7.09928C37.9881 7.14522 38.0472 7.16053 38.0953 7.1999C38.1347 7.24584 38.15 7.3049 38.1959 7.35084L44.5047 13.6596L11.9197 46.2446L6.90375 41.2287L34.5472 13.5852C35.4025 12.7299 35.4025 11.3474 34.5472 10.4921C33.6919 9.63678 32.3094 9.63678 31.4541 10.4921L2.26844 39.6777C2.26625 39.6799 2.26406 39.6799 2.26187 39.6821L0.63875 41.3052C0.433125 41.5108 0.273438 41.7558 0.164063 42.0205C0.0568751 42.2874 0 42.5696 0 42.8518V59.0677C0 60.2774 0.98 61.2552 2.1875 61.2552H18.4056C18.9853 61.2552 19.5431 61.0255 19.9522 60.6143L57.2513 23.3152C62.5734 17.9908 62.5734 9.32834 57.2513 4.00397ZM48.9081 4.47209C50.9075 4.75646 52.7231 5.66428 54.1559 7.09709C57.2381 10.1815 57.6691 14.8999 55.4991 18.4699L49.1422 12.1108L42.7634 5.73209C44.5812 4.61865 46.7316 4.16365 48.9081 4.47209ZM4.375 56.8802V44.8883L10.3687 50.8821C10.3709 50.8843 10.3709 50.8865 10.3709 50.8865L10.3753 50.8887L16.3669 56.8802H4.375ZM15.0128 49.3377L47.5956 16.7527L52.6116 21.7687L20.0266 54.3537L15.0128 49.3377Z" fill="white"/>
</svg>
