<svg xmlns="http://www.w3.org/2000/svg" width="35" height="35" fill="none" viewBox="0 0 35 35"><g clip-path="url(#clip0_318_15844)"><path fill="#ffe8ce" d="M3.5 10.5H4A3.51 3.51 0 0 1 7.5 14v17.5A3.51 3.51 0 0 1 4 35h-.5A3.51 3.51 0 0 1 0 31.5V14a3.51 3.51 0 0 1 3.5-3.5M17.5 0A3.51 3.51 0 0 1 21 3.5v28a3.51 3.51 0 0 1-3.5 3.5 3.51 3.51 0 0 1-3.5-3.5v-28A3.51 3.51 0 0 1 17.5 0m14 20a3.51 3.51 0 0 1 3.5 3.5v8a3.51 3.51 0 0 1-3.5 3.5 3.51 3.51 0 0 1-3.5-3.5v-8a3.51 3.51 0 0 1 3.5-3.5"/></g><defs><clipPath id="clip0_318_15844"><path fill="#fff" d="M0 0h35v35H0Z"/></clipPath></defs></svg>