<svg xmlns="http://www.w3.org/2000/svg" width="27" height="35" fill="none" viewBox="0 0 27 35"><g clip-path="url(#clip0_318_15854)"><path fill="#b4e4ff" d="M8.438 4.922C8.438 2.204 10.704 0 13.5 0s5.063 2.204 5.063 4.922-2.267 4.922-5.063 4.922S8.438 7.64 8.438 4.922m17.903.094a2.296 2.296 0 0 0-3.182 0l-6.09 5.922H9.932L3.84 5.016a2.296 2.296 0 0 0-3.182 0c-.879.854-.879 2.239 0 3.093l6.654 6.469v18.235C7.313 34.02 8.32 35 9.563 35h1.125c1.242 0 2.25-.98 2.25-2.188v-7.656h1.125v7.656c0 1.209 1.007 2.188 2.25 2.188h1.125c1.242 0 2.25-.98 2.25-2.188V14.578L26.34 8.11a2.145 2.145 0 0 0 0-3.094"/></g><defs><clipPath id="clip0_318_15854"><path fill="#fff" d="M0 0h27v35H0Z"/></clipPath></defs></svg>