<svg xmlns="http://www.w3.org/2000/svg" width="32" height="32" viewBox="0 0 32 32" fill="none">
<g clip-path="url(#clip0_10940_1344)">
<path fill-rule="evenodd" clip-rule="evenodd" d="M0 16C0 7.16347 7.16347 0 16 0C24.8365 0 32 7.16347 32 16C32 24.8365 24.8365 32 16 32C7.16347 32 0 24.8365 0 16ZM13.072 15.5429V17.28H15.9551C15.8389 18.0255 15.0837 19.4659 13.072 19.4659C11.3363 19.4659 9.9202 18.0327 9.9202 16.2667C9.9202 14.5006 11.3363 13.0674 13.072 13.0674C14.0597 13.0674 14.7205 13.4873 15.0982 13.8491L16.478 12.5246C15.592 11.6994 14.4446 11.2 13.072 11.2C10.2615 11.2 7.98847 13.4655 7.98847 16.2667C7.98847 19.0678 10.2615 21.3333 13.072 21.3333C16.0059 21.3333 17.9523 19.2777 17.9523 16.3825C17.9523 16.0495 17.9159 15.7962 17.8723 15.5429H13.072ZM22.5129 15.5429H23.9654V16.9905H22.5129V18.4381H21.0605V16.9905H19.608V15.5429H21.0605V14.0953H22.5129V15.5429Z" fill="white"/>
</g>
<defs>
<clipPath id="clip0_10940_1344">
<rect width="32" height="32" fill="white"/>
</clipPath>
</defs>
</svg>