<svg xmlns="http://www.w3.org/2000/svg" width="32" height="32" fill="none" viewBox="0 0 32 32"><g clip-path="url(#clip0_10940_1344)"><path fill="#fff" fill-rule="evenodd" d="M0 16C0 7.163 7.163 0 16 0s16 7.163 16 16-7.163 16-16 16S0 24.837 0 16m13.072-.457v1.737h2.883c-.116.745-.871 2.186-2.883 2.186-1.736 0-3.152-1.433-3.152-3.2 0-1.765 1.416-3.199 3.152-3.199.988 0 1.649.42 2.026.782l1.38-1.324c-.886-.826-2.033-1.325-3.406-1.325a5.07 5.07 0 0 0-5.084 5.067 5.07 5.07 0 0 0 5.084 5.067c2.934 0 4.88-2.056 4.88-4.951 0-.334-.036-.587-.08-.84Zm9.44 0h1.453v1.448h-1.453v1.448H21.06V16.99h-1.453v-1.448h1.453v-1.448h1.452Z" clip-rule="evenodd"/></g><defs><clipPath id="clip0_10940_1344"><path fill="#fff" d="M0 0h32v32H0Z"/></clipPath></defs></svg>