<svg xmlns="http://www.w3.org/2000/svg" width="35" height="35" fill="none" viewBox="0 0 35 35"><path fill="#cc9dff" d="M22.605 2.918h-5.469c-.604 0-1.094.49-1.094 1.094v4.843c-4.947.707-8.75 4.962-8.75 10.105H6.198a3.28 3.28 0 0 0-3.281 3.281v8.75c0 .604.49 1.094 1.094 1.094h10.573a.364.364 0 0 0 .364-.365v-4.375a.73.73 0 0 1 .73-.73h3.646a.73.73 0 0 1 .73.73v4.375c-.002.202.162.365.363.365H30.99c.604 0 1.094-.49 1.094-1.094v-8.75a3.28 3.28 0 0 0-3.281-3.281h-1.094c0-5.393-4.182-9.81-9.48-10.183V7.293h4.375a.73.73 0 0 0 .73-.73V3.647a.73.73 0 0 0-.73-.73m0 14.219v2.917a1.094 1.094 0 0 1-2.188 0v-2.917a1.094 1.094 0 0 1 2.188 0m-5.47-1.094c.605 0 1.095.49 1.095 1.094v2.917a1.094 1.094 0 0 1-2.188 0v-2.917c0-.604.49-1.094 1.094-1.094m-3.28 1.094v2.917a1.094 1.094 0 0 1-2.188 0v-2.917a1.094 1.094 0 0 1 2.188 0m-5.47 5.468c.605 0 1.094.49 1.094 1.094v3.646a1.094 1.094 0 0 1-2.188 0V23.7c.001-.604.49-1.094 1.095-1.094M27.71 23.7v3.646a1.094 1.094 0 0 1-2.188 0V23.7a1.094 1.094 0 0 1 2.188 0"/></svg>