<svg xmlns="http://www.w3.org/2000/svg" width="278" height="42" viewBox="0 0 278 42" fill="none">
<path d="M10.6655 0.188764V3.25618H2.89492V0.188764H10.6655ZM4.34825 0.188764V13.9331H0.386771V0.188764H4.34825ZM13.2205 0.188764V13.9331H9.24735V0.188764H13.2205Z" fill="white"/>
<path d="M21.0966 9.62697H17.5102V6.55955H21.0966C21.5185 6.55955 21.8702 6.49663 22.1514 6.37079C22.4327 6.24494 22.6398 6.07191 22.7726 5.85169C22.9133 5.63146 22.9836 5.38764 22.9836 5.12022C22.9836 4.78202 22.9133 4.47528 22.7726 4.2C22.6398 3.91685 22.4327 3.68876 22.1514 3.51573C21.8702 3.3427 21.5185 3.25618 21.0966 3.25618H19.0924V13.9331H15.131V0.188764H21.0966C22.2921 0.188764 23.3235 0.401124 24.1908 0.825843C25.0659 1.25056 25.7379 1.83258 26.2067 2.57191C26.6833 3.31124 26.9216 4.15281 26.9216 5.09663C26.9216 5.7573 26.7849 6.36685 26.5114 6.92528C26.2458 7.47584 25.859 7.95562 25.3511 8.36461C24.8432 8.76573 24.2299 9.0764 23.511 9.29663C22.8 9.51685 21.9952 9.62697 21.0966 9.62697Z" fill="white"/>
<path d="M29.6525 12.7888L37.2707 0.188764L40.2242 1.33315L32.6412 13.9331L29.6525 12.7888ZM37.2707 0.188764H41.2322V13.9331H37.2707V0.188764ZM28.6797 0.188764H32.6412V13.9331H28.6797V0.188764Z" fill="white"/>
<path d="M49.3544 8.3882H45.5218L45.4984 5.87528H48.8855C49.3075 5.87528 49.6474 5.82809 49.9052 5.73371C50.1631 5.63933 50.3506 5.50169 50.4678 5.32079C50.585 5.13202 50.6436 4.89607 50.6436 4.61292C50.6436 4.28258 50.585 4.0191 50.4678 3.82247C50.3584 3.61798 50.1826 3.47247 49.9404 3.38595C49.706 3.29944 49.4012 3.25618 49.0262 3.25618H47.1041V13.9331H43.1426V0.188764H48.6277C49.581 0.188764 50.4248 0.267416 51.1593 0.424719C51.9016 0.582022 52.5306 0.817977 53.0463 1.13258C53.562 1.44719 53.9526 1.84438 54.2183 2.32416C54.484 2.80393 54.6168 3.36236 54.6168 3.99944C54.6168 4.55786 54.4957 5.09663 54.2535 5.61573C54.0112 6.13483 53.5854 6.55562 52.9759 6.87809C52.3743 7.1927 51.5226 7.3382 50.4209 7.31461L49.3544 8.3882ZM49.1903 13.9331H44.6662L45.8734 10.8775H49.1903C49.6357 10.8775 49.9873 10.8185 50.2451 10.7006C50.503 10.5747 50.6827 10.4174 50.7842 10.2287C50.8936 10.0399 50.9483 9.85506 50.9483 9.67416C50.9483 9.39888 50.8975 9.16685 50.796 8.97809C50.6944 8.78933 50.5264 8.64382 50.292 8.54157C50.0576 8.43933 49.745 8.3882 49.3544 8.3882H46.3305L46.3422 5.87528H49.8232L50.7608 6.91348C51.8234 6.8191 52.6556 6.93315 53.2572 7.25562C53.8589 7.57022 54.2808 7.98315 54.523 8.49438C54.7731 8.99775 54.8981 9.49719 54.8981 9.9927C54.8981 10.6848 54.777 11.2787 54.5348 11.7742C54.3003 12.2697 53.9448 12.6787 53.4682 13.0011C52.9994 13.3157 52.4056 13.5517 51.6867 13.709C50.9757 13.8584 50.1435 13.9331 49.1903 13.9331Z" fill="white"/>
<path d="M62.6101 4.54213L59.4573 13.9331H55.4724L60.77 0.188764H63.5125L62.6101 4.54213ZM65.9855 13.9331L62.7156 4.56573L61.7896 0.188764H64.5791L69.9587 13.9331H65.9855ZM66.0324 8.81292V11.5264H58.7541V8.81292H66.0324Z" fill="white"/>
<path d="M77.6121 0.188764V13.9331H73.6272V0.188764H77.6121ZM81.9486 0.188764V3.25618H69.4196V0.188764H81.9486Z" fill="white"/>
<path d="M93.2588 5.67472V8.74213H85.7812V5.67472H93.2588ZM87.2111 0.188764V13.9331H83.2496V0.188764H87.2111ZM95.7904 0.188764V13.9331H91.8523V0.188764H95.7904Z" fill="white"/>
<path d="M103.725 4.54213L100.572 13.9331H96.5873L101.885 0.188764H104.627L103.725 4.54213ZM107.1 13.9331L103.831 4.56573L102.905 0.188764H105.694L111.074 13.9331H107.1ZM107.147 8.81292V11.5264H99.869V8.81292H107.147Z" fill="white"/>
<path d="M133.987 10.8657V13.9331H120.274V10.8657H133.987ZM129.193 0.188764V13.9331H125.22V0.188764H129.193ZM136.542 0.188764V13.9331H132.581V0.188764H136.542ZM121.833 0.188764V13.9331H117.871V0.188764H121.833Z" fill="white"/>
<path d="M142.414 0.188764V13.9331H138.452V0.188764H142.414ZM150.243 0.188764L145.825 8.98989H141.886L141.441 5.2736H143.797L145.766 0.188764H150.243ZM145.953 13.9331L143.445 8.23483L146.645 6.06404L150.688 13.9331H145.953Z" fill="white"/>
<path d="M164.331 6.8309V7.30281C164.331 8.34888 164.171 9.2927 163.85 10.1343C163.53 10.9758 163.077 11.6955 162.491 12.2933C161.905 12.8831 161.213 13.3354 160.416 13.65C159.619 13.9646 158.744 14.1219 157.791 14.1219C156.822 14.1219 155.935 13.9646 155.13 13.65C154.333 13.3354 153.642 12.8831 153.056 12.2933C152.47 11.6955 152.017 10.9758 151.696 10.1343C151.376 9.2927 151.216 8.34888 151.216 7.30281V6.8309C151.216 5.77697 151.372 4.83315 151.685 3.99944C152.005 3.15787 152.454 2.4382 153.033 1.84045C153.619 1.2427 154.31 0.786517 155.107 0.47191C155.912 0.157303 156.799 0 157.768 0C158.721 0 159.596 0.157303 160.393 0.47191C161.19 0.786517 161.881 1.2427 162.467 1.84045C163.061 2.4382 163.518 3.15787 163.839 3.99944C164.167 4.83315 164.331 5.77697 164.331 6.8309ZM160.346 7.30281V6.8191C160.346 6.21348 160.287 5.67865 160.17 5.21461C160.053 4.7427 159.881 4.34551 159.655 4.02303C159.436 3.70056 159.166 3.45674 158.846 3.29157C158.533 3.11854 158.174 3.03202 157.768 3.03202C157.338 3.03202 156.959 3.11854 156.631 3.29157C156.31 3.45674 156.045 3.70056 155.834 4.02303C155.623 4.34551 155.463 4.7427 155.353 5.21461C155.252 5.67865 155.201 6.21348 155.201 6.8191V7.30281C155.201 7.8927 155.252 8.4236 155.353 8.89551C155.463 9.35955 155.627 9.75674 155.845 10.0871C156.064 10.4174 156.334 10.6691 156.654 10.8421C156.982 11.0152 157.361 11.1017 157.791 11.1017C158.189 11.1017 158.545 11.0152 158.858 10.8421C159.178 10.6691 159.447 10.4174 159.666 10.0871C159.885 9.75674 160.053 9.35955 160.17 8.89551C160.287 8.4236 160.346 7.8927 160.346 7.30281Z" fill="white"/>
<path d="M175.793 0.188764V3.25618H169.066V0.188764H175.793ZM178.536 0.188764V13.9331H174.563V0.188764H178.536ZM167.953 0.188764H171.937L171.691 6.00506C171.644 7.1927 171.547 8.22697 171.398 9.10786C171.25 9.98876 171.031 10.7399 170.742 11.3612C170.461 11.9747 170.097 12.4702 169.652 12.8478C169.207 13.2253 168.66 13.5006 168.011 13.6736C167.37 13.8466 166.612 13.9331 165.737 13.9331H165.257L165.175 10.8539L165.562 10.7831C165.882 10.7281 166.155 10.6455 166.382 10.5354C166.616 10.4174 166.812 10.2444 166.968 10.0163C167.132 9.7882 167.265 9.48146 167.366 9.09607C167.476 8.70281 167.562 8.19944 167.624 7.58595C167.687 6.97247 167.734 6.22528 167.765 5.34438L167.953 0.188764Z" fill="white"/>
<path d="M186.471 4.54213L183.318 13.9331H179.333L184.631 0.188764H187.373L186.471 4.54213ZM189.846 13.9331L186.576 4.56573L185.65 0.188764H188.44L193.819 13.9331H189.846ZM189.893 8.81292V11.5264H182.615V8.81292H189.893Z" fill="white"/>
<path d="M13.1151 30.9927V31.4646C13.1151 32.5107 12.9549 33.4545 12.6345 34.2961C12.3142 35.1376 11.861 35.8573 11.275 36.4551C10.689 37.0449 9.99745 37.4972 9.20047 37.8118C8.40349 38.1264 7.52837 38.2837 6.57511 38.2837C5.60623 38.2837 4.71939 38.1264 3.91459 37.8118C3.11761 37.4972 2.42611 37.0449 1.84009 36.4551C1.25408 35.8573 0.80089 35.1376 0.480534 34.2961C0.160178 33.4545 0 32.5107 0 31.4646V30.9927C0 29.9388 0.156271 28.9949 0.468814 28.1612C0.78917 27.3197 1.23845 26.6 1.81665 26.0022C2.40267 25.4045 3.09417 24.9483 3.89115 24.6337C4.69595 24.3191 5.58279 24.1618 6.55167 24.1618C7.50493 24.1618 8.38004 24.3191 9.17703 24.6337C9.97401 24.9483 10.6655 25.4045 11.2515 26.0022C11.8454 26.6 12.3025 27.3197 12.6228 28.1612C12.951 28.9949 13.1151 29.9388 13.1151 30.9927ZM9.13015 31.4646V30.9809C9.13015 30.3753 9.07155 29.8404 8.95434 29.3764C8.83714 28.9045 8.66524 28.5073 8.43865 28.1848C8.21987 27.8624 7.9503 27.6185 7.62994 27.4534C7.3174 27.2803 6.95798 27.1938 6.55167 27.1938C6.12193 27.1938 5.74297 27.2803 5.4148 27.4534C5.09444 27.6185 4.82878 27.8624 4.61781 28.1848C4.40685 28.5073 4.24667 28.9045 4.13728 29.3764C4.0357 29.8404 3.98492 30.3753 3.98492 30.9809V31.4646C3.98492 32.0545 4.0357 32.5854 4.13728 33.0573C4.24667 33.5213 4.41076 33.9185 4.62954 34.2489C4.84832 34.5792 5.11788 34.8309 5.43824 35.0039C5.76641 35.177 6.14537 35.2635 6.57511 35.2635C6.9736 35.2635 7.32912 35.177 7.64166 35.0039C7.96202 34.8309 8.23159 34.5792 8.45037 34.2489C8.66915 33.9185 8.83714 33.5213 8.95434 33.0573C9.07155 32.5854 9.13015 32.0545 9.13015 31.4646Z" fill="white"/>
<path d="M24.5776 24.3506V27.418H17.8501V24.3506H24.5776ZM27.3201 24.3506V38.0949H23.3469V24.3506H27.3201ZM16.7366 24.3506H20.7216L20.4754 30.1669C20.4286 31.3545 20.3309 32.3888 20.1824 33.2697C20.034 34.1506 19.8152 34.9017 19.5261 35.523C19.2448 36.1365 18.8815 36.632 18.4361 37.0095C17.9907 37.3871 17.4438 37.6624 16.7953 37.8354C16.1545 38.0084 15.3966 38.0949 14.5215 38.0949H14.041L13.9589 35.0157L14.3457 34.9449C14.6661 34.8899 14.9395 34.8073 15.1661 34.6972C15.4005 34.5792 15.5959 34.4062 15.7521 34.1781C15.9162 33.95 16.0491 33.6433 16.1506 33.2579C16.26 32.8646 16.346 32.3612 16.4085 31.7478C16.471 31.1343 16.5179 30.3871 16.5491 29.5062L16.7366 24.3506Z" fill="white"/>
<path d="M39.5444 35.0393V38.0949H31.6684V35.0393H39.5444ZM33.1803 24.3506V38.0949H29.2188V24.3506H33.1803ZM38.5482 29.459V32.5264H31.6684V29.459H38.5482ZM39.603 24.3506V27.418H31.6684V24.3506H39.603Z" fill="white"/>
<path d="M50.7374 29.8365V32.9039H43.2598V29.8365H50.7374ZM44.6897 24.3506V38.0949H40.7282V24.3506H44.6897ZM53.269 24.3506V38.0949H49.3309V24.3506H53.269Z" fill="white"/>
<path d="M56.1404 36.9506L63.7587 24.3506L66.7122 25.4949L59.1291 38.0949L56.1404 36.9506ZM63.7587 24.3506H67.7201V38.0949H63.7587V24.3506ZM55.1677 24.3506H59.1291V38.0949H55.1677V24.3506Z" fill="white"/>
<path d="M81.8197 32.55H77.9872L77.9637 30.0371H81.3509C81.7728 30.0371 82.1127 29.9899 82.3706 29.8955C82.6284 29.8011 82.8159 29.6635 82.9331 29.4826C83.0503 29.2938 83.1089 29.0579 83.1089 28.7747C83.1089 28.4444 83.0503 28.1809 82.9331 27.9843C82.8238 27.7798 82.6479 27.6343 82.4057 27.5478C82.1713 27.4612 81.8666 27.418 81.4915 27.418H79.5694V38.0949H75.6079V24.3506H81.0931C82.0463 24.3506 82.8902 24.4292 83.6246 24.5865C84.3669 24.7438 84.9959 24.9798 85.5116 25.2944C86.0273 25.609 86.418 26.0062 86.6837 26.486C86.9493 26.9657 87.0821 27.5242 87.0821 28.1612C87.0821 28.7197 86.961 29.2584 86.7188 29.7775C86.4766 30.2966 86.0508 30.7174 85.4413 31.0399C84.8397 31.3545 83.988 31.5 82.8863 31.4764L81.8197 32.55ZM81.6556 38.0949H77.1316L78.3388 35.0393H81.6556C82.101 35.0393 82.4526 34.9803 82.7105 34.8624C82.9683 34.7365 83.148 34.5792 83.2496 34.3904C83.359 34.2017 83.4137 34.0169 83.4137 33.836C83.4137 33.5607 83.3629 33.3287 83.2613 33.1399C83.1597 32.9511 82.9917 32.8056 82.7573 32.7034C82.5229 32.6011 82.2104 32.55 81.8197 32.55H78.7959L78.8076 30.0371H82.2885L83.2262 31.0753C84.2888 30.9809 85.1209 31.0949 85.7226 31.4174C86.3242 31.732 86.7462 32.1449 86.9884 32.6562C87.2384 33.1595 87.3634 33.659 87.3634 34.1545C87.3634 34.8466 87.2423 35.4404 87.0001 35.936C86.7657 36.4315 86.4102 36.8404 85.9336 37.1629C85.4647 37.4775 84.8709 37.7135 84.1521 37.8708C83.441 38.0202 82.6089 38.0949 81.6556 38.0949Z" fill="white"/>
<path d="M95.931 29.6831V32.7506H91.8992V29.6831H95.931ZM97.2554 33.2933H101.217C101.178 34.3079 100.893 35.1888 100.361 35.936C99.8378 36.6831 99.115 37.2612 98.193 37.6702C97.2788 38.0792 96.2162 38.2837 95.0051 38.2837C93.9893 38.2837 93.0869 38.1303 92.2977 37.8236C91.5163 37.509 90.8522 37.0567 90.3052 36.4669C89.7661 35.877 89.3559 35.1612 89.0746 34.3197C88.7933 33.4781 88.6527 32.5225 88.6527 31.4528V31.0045C88.6527 29.9348 88.8011 28.9792 89.098 28.1376C89.395 27.2882 89.8169 26.5685 90.3638 25.9787C90.9186 25.3809 91.5749 24.9287 92.3329 24.6219C93.0986 24.3073 93.9503 24.15 94.8879 24.15C96.2162 24.15 97.3335 24.3742 98.2399 24.8225C99.1541 25.2708 99.8612 25.8803 100.361 26.6511C100.861 27.4219 101.154 28.2949 101.24 29.2702H97.2906C97.2984 28.9163 97.2241 28.582 97.0679 28.2674C96.9194 27.9528 96.6694 27.7011 96.3178 27.5124C95.9662 27.3157 95.4895 27.2174 94.8879 27.2174C94.5128 27.2174 94.1808 27.2921 93.8917 27.4416C93.6104 27.5831 93.376 27.8073 93.1884 28.114C93.0009 28.4208 92.8564 28.814 92.7548 29.2938C92.661 29.7657 92.6141 30.332 92.6141 30.9927V31.4528C92.6141 32.1371 92.6571 32.723 92.7431 33.2107C92.829 33.6904 92.9658 34.0798 93.1533 34.3787C93.3486 34.6697 93.5987 34.886 93.9034 35.0275C94.2081 35.1612 94.5754 35.2281 95.0051 35.2281C95.4661 35.2281 95.8646 35.1652 96.2006 35.0393C96.5444 34.9056 96.81 34.6972 96.9976 34.414C97.1851 34.123 97.271 33.7494 97.2554 33.2933Z" fill="white"/>
<path d="M105.143 24.3506H109.081L109.07 28.7511C109.062 30.0253 108.956 31.15 108.753 32.1253C108.55 33.0927 108.265 33.9264 107.897 34.6264C107.538 35.3264 107.116 35.9124 106.632 36.3843C106.155 36.8483 105.635 37.218 105.073 37.4933C104.51 37.7685 103.928 37.9691 103.327 38.0949H102.905L102.823 35.0393H103.127C103.596 34.5674 103.963 34.1152 104.229 33.6826C104.502 33.2421 104.702 32.786 104.827 32.314C104.952 31.8343 105.03 31.3034 105.061 30.7213C105.1 30.1315 105.12 29.4472 105.12 28.6685L105.143 24.3506ZM106.221 24.3506H115.926V38.0949H111.964V27.418H106.221V24.3506ZM102.002 35.0275H117.825V42H113.875V38.0949H105.952V42H102.002V35.0275Z" fill="white"/>
<path d="M126.779 29.6831V32.7506H122.747V29.6831H126.779ZM128.103 33.2933H132.065C132.026 34.3079 131.741 35.1888 131.209 35.936C130.686 36.6831 129.963 37.2612 129.041 37.6702C128.127 38.0792 127.064 38.2837 125.853 38.2837C124.837 38.2837 123.935 38.1303 123.146 37.8236C122.364 37.509 121.7 37.0567 121.153 36.4669C120.614 35.877 120.204 35.1612 119.923 34.3197C119.641 33.4781 119.501 32.5225 119.501 31.4528V31.0045C119.501 29.9348 119.649 28.9792 119.946 28.1376C120.243 27.2882 120.665 26.5685 121.212 25.9787C121.767 25.3809 122.423 24.9287 123.181 24.6219C123.947 24.3073 124.798 24.15 125.736 24.15C127.064 24.15 128.181 24.3742 129.088 24.8225C130.002 25.2708 130.709 25.8803 131.209 26.6511C131.709 27.4219 132.002 28.2949 132.088 29.2702H128.139C128.146 28.9163 128.072 28.582 127.916 28.2674C127.767 27.9528 127.517 27.7011 127.166 27.5124C126.814 27.3157 126.337 27.2174 125.736 27.2174C125.361 27.2174 125.029 27.2921 124.74 27.4416C124.458 27.5831 124.224 27.8073 124.036 28.114C123.849 28.4208 123.704 28.814 123.603 29.2938C123.509 29.7657 123.462 30.332 123.462 30.9927V31.4528C123.462 32.1371 123.505 32.723 123.591 33.2107C123.677 33.6904 123.814 34.0798 124.001 34.3787C124.197 34.6697 124.447 34.886 124.751 35.0275C125.056 35.1612 125.423 35.2281 125.853 35.2281C126.314 35.2281 126.713 35.1652 127.049 35.0393C127.392 34.9056 127.658 34.6972 127.845 34.414C128.033 34.123 128.119 33.7494 128.103 33.2933Z" fill="white"/>
<path d="M139.449 33.7888H135.862V30.7213H139.449C139.871 30.7213 140.222 30.6584 140.503 30.5326C140.785 30.4067 140.992 30.2337 141.125 30.0135C141.265 29.7933 141.336 29.5494 141.336 29.282C141.336 28.9438 141.265 28.6371 141.125 28.3618C140.992 28.0787 140.785 27.8506 140.503 27.6775C140.222 27.5045 139.871 27.418 139.449 27.418H137.444V38.0949H133.483V24.3506H139.449C140.644 24.3506 141.676 24.5629 142.543 24.9876C143.418 25.4124 144.09 25.9944 144.559 26.7337C145.035 27.473 145.274 28.3146 145.274 29.2584C145.274 29.9191 145.137 30.5287 144.863 31.0871C144.598 31.6376 144.211 32.1174 143.703 32.5264C143.195 32.9275 142.582 33.2382 141.863 33.4584C141.152 33.6787 140.347 33.7888 139.449 33.7888Z" fill="white"/>
<path d="M157.041 29.8365V32.9039H149.563V29.8365H157.041ZM150.993 24.3506V38.0949H147.032V24.3506H150.993ZM159.572 24.3506V38.0949H155.634V24.3506H159.572Z" fill="white"/>
<path d="M165.702 24.3506V38.0949H161.741V24.3506H165.702Z" fill="white"/>
<path d="M171.832 24.3506V38.0949H167.87V24.3506H171.832ZM179.661 24.3506L175.243 33.1517H171.305L170.859 29.4354H173.215L175.184 24.3506H179.661ZM175.371 38.0949L172.863 32.3966L176.063 30.2258L180.107 38.0949H175.371Z" fill="white"/>
<path d="M193.749 30.9927V31.4646C193.749 32.5107 193.589 33.4545 193.268 34.2961C192.948 35.1376 192.495 35.8573 191.909 36.4551C191.323 37.0449 190.631 37.4972 189.834 37.8118C189.037 38.1264 188.162 38.2837 187.209 38.2837C186.24 38.2837 185.353 38.1264 184.549 37.8118C183.752 37.4972 183.06 37.0449 182.474 36.4551C181.888 35.8573 181.435 35.1376 181.114 34.2961C180.794 33.4545 180.634 32.5107 180.634 31.4646V30.9927C180.634 29.9388 180.79 28.9949 181.103 28.1612C181.423 27.3197 181.872 26.6 182.451 26.0022C183.037 25.4045 183.728 24.9483 184.525 24.6337C185.33 24.3191 186.217 24.1618 187.186 24.1618C188.139 24.1618 189.014 24.3191 189.811 24.6337C190.608 24.9483 191.299 25.4045 191.885 26.0022C192.479 26.6 192.936 27.3197 193.257 28.1612C193.585 28.9949 193.749 29.9388 193.749 30.9927ZM189.764 31.4646V30.9809C189.764 30.3753 189.705 29.8404 189.588 29.3764C189.471 28.9045 189.299 28.5073 189.073 28.1848C188.854 27.8624 188.584 27.6185 188.264 27.4534C187.951 27.2803 187.592 27.1938 187.186 27.1938C186.756 27.1938 186.377 27.2803 186.049 27.4534C185.728 27.6185 185.463 27.8624 185.252 28.1848C185.041 28.5073 184.881 28.9045 184.771 29.3764C184.67 29.8404 184.619 30.3753 184.619 30.9809V31.4646C184.619 32.0545 184.67 32.5854 184.771 33.0573C184.881 33.5213 185.045 33.9185 185.263 34.2489C185.482 34.5792 185.752 34.8309 186.072 35.0039C186.4 35.177 186.779 35.2635 187.209 35.2635C187.608 35.2635 187.963 35.177 188.276 35.0039C188.596 34.8309 188.866 34.5792 189.084 34.2489C189.303 33.9185 189.471 33.5213 189.588 33.0573C189.705 32.5854 189.764 32.0545 189.764 31.4646Z" fill="white"/>
<path d="M201.484 32.55H197.652L197.628 30.0371H201.016C201.438 30.0371 201.777 29.9899 202.035 29.8955C202.293 29.8011 202.481 29.6635 202.598 29.4826C202.715 29.2938 202.774 29.0579 202.774 28.7747C202.774 28.4444 202.715 28.1809 202.598 27.9843C202.488 27.7798 202.313 27.6343 202.07 27.5478C201.836 27.4612 201.531 27.418 201.156 27.418H199.234V38.0949H195.273V24.3506H200.758C201.711 24.3506 202.555 24.4292 203.289 24.5865C204.032 24.7438 204.661 24.9798 205.176 25.2944C205.692 25.609 206.083 26.0062 206.348 26.486C206.614 26.9657 206.747 27.5242 206.747 28.1612C206.747 28.7197 206.626 29.2584 206.384 29.7775C206.141 30.2966 205.715 30.7174 205.106 31.0399C204.504 31.3545 203.653 31.5 202.551 31.4764L201.484 32.55ZM201.32 38.0949H196.796L198.003 35.0393H201.32C201.766 35.0393 202.117 34.9803 202.375 34.8624C202.633 34.7365 202.813 34.5792 202.914 34.3904C203.024 34.2017 203.078 34.0169 203.078 33.836C203.078 33.5607 203.028 33.3287 202.926 33.1399C202.824 32.9511 202.656 32.8056 202.422 32.7034C202.188 32.6011 201.875 32.55 201.484 32.55H198.461L198.472 30.0371H201.953L202.891 31.0753C203.953 30.9809 204.786 31.0949 205.387 31.4174C205.989 31.732 206.411 32.1449 206.653 32.6562C206.903 33.1595 207.028 33.659 207.028 34.1545C207.028 34.8466 206.907 35.4404 206.665 35.936C206.43 36.4315 206.075 36.8404 205.598 37.1629C205.129 37.4775 204.536 37.7135 203.817 37.8708C203.106 38.0202 202.274 38.0949 201.32 38.0949Z" fill="white"/>
<path d="M221.432 30.9927V31.4646C221.432 32.5107 221.272 33.4545 220.952 34.2961C220.632 35.1376 220.178 35.8573 219.592 36.4551C219.006 37.0449 218.315 37.4972 217.518 37.8118C216.721 38.1264 215.846 38.2837 214.892 38.2837C213.924 38.2837 213.037 38.1264 212.232 37.8118C211.435 37.4972 210.743 37.0449 210.157 36.4551C209.571 35.8573 209.118 35.1376 208.798 34.2961C208.478 33.4545 208.317 32.5107 208.317 31.4646V30.9927C208.317 29.9388 208.474 28.9949 208.786 28.1612C209.107 27.3197 209.556 26.6 210.134 26.0022C210.72 25.4045 211.412 24.9483 212.209 24.6337C213.013 24.3191 213.9 24.1618 214.869 24.1618C215.822 24.1618 216.697 24.3191 217.494 24.6337C218.291 24.9483 218.983 25.4045 219.569 26.0022C220.163 26.6 220.62 27.3197 220.94 28.1612C221.268 28.9949 221.432 29.9388 221.432 30.9927ZM217.448 31.4646V30.9809C217.448 30.3753 217.389 29.8404 217.272 29.3764C217.155 28.9045 216.983 28.5073 216.756 28.1848C216.537 27.8624 216.268 27.6185 215.947 27.4534C215.635 27.2803 215.275 27.1938 214.869 27.1938C214.439 27.1938 214.06 27.2803 213.732 27.4534C213.412 27.6185 213.146 27.8624 212.935 28.1848C212.724 28.5073 212.564 28.9045 212.455 29.3764C212.353 29.8404 212.302 30.3753 212.302 30.9809V31.4646C212.302 32.0545 212.353 32.5854 212.455 33.0573C212.564 33.5213 212.728 33.9185 212.947 34.2489C213.166 34.5792 213.435 34.8309 213.756 35.0039C214.084 35.177 214.463 35.2635 214.892 35.2635C215.291 35.2635 215.646 35.177 215.959 35.0039C216.279 34.8309 216.549 34.5792 216.768 34.2489C216.987 33.9185 217.155 33.5213 217.272 33.0573C217.389 32.5854 217.448 32.0545 217.448 31.4646Z" fill="white"/>
<path d="M227.187 24.3506V38.0949H223.226V24.3506H227.187ZM220.378 21.6371C220.378 21.1966 220.553 20.827 220.905 20.5281C221.257 20.2213 221.671 20.068 222.147 20.068C222.632 20.068 223.046 20.2213 223.39 20.5281C223.741 20.827 223.917 21.1966 223.917 21.6371C223.917 22.0775 223.741 22.4511 223.39 22.7579C223.046 23.0567 222.632 23.2062 222.147 23.2062C221.671 23.2062 221.257 23.0567 220.905 22.7579C220.553 22.4511 220.378 22.0775 220.378 21.6371ZM226.46 21.6371C226.46 21.1966 226.636 20.827 226.988 20.5281C227.339 20.2213 227.754 20.068 228.23 20.068C228.715 20.068 229.129 20.2213 229.473 20.5281C229.824 20.827 230 21.1966 230 21.6371C230 22.0775 229.824 22.4511 229.473 22.7579C229.129 23.0567 228.715 23.2062 228.23 23.2062C227.754 23.2062 227.339 23.0567 226.988 22.7579C226.636 22.4511 226.46 22.0775 226.46 21.6371Z" fill="white"/>
<path fill-rule="evenodd" clip-rule="evenodd" d="M251.175 13.0768C248.611 14.2513 243.215 15.4408 242.146 10.8021C241.077 6.16344 246.134 4.13895 248.795 3.70654C254.483 3.05224 266.708 1.67913 273.534 6.3343C274.109 6.78188 274.959 7.57504 275.664 8.60431C279.596 15.0355 277.587 26.6915 276.627 32.2679L276.572 32.586C275.994 35.1939 273.677 40.0846 269.03 38.784C264.382 37.4835 265.87 32.2134 267.195 29.7409C268.418 27.404 269.536 21.7103 268.826 21.0027C268.52 20.6978 266.787 19.0721 261.08 28.3184C256.848 35.1735 251.706 33.5989 249.191 31.633L248.61 31.0615C246.628 28.6404 244.785 23.1658 252.29 19.1653C261.919 14.0326 260.369 12.2439 260.077 11.9273C259.401 11.1924 253.597 11.9954 251.175 13.0768Z" fill="#883CDA"/>
</svg>