<svg xmlns="http://www.w3.org/2000/svg" width="278" height="42" fill="none" viewBox="0 0 278 42"><path fill="#fff" d="M10.666.189v3.067h-7.77V.19Zm-6.318 0v13.744H.387V.19Zm8.872 0v13.744H9.247V.19ZM21.097 9.627H17.51V6.56h3.586q.632 0 1.054-.19.423-.188.622-.518.21-.33.21-.732 0-.507-.21-.92a1.6 1.6 0 0 0-.621-.684q-.423-.26-1.055-.26h-2.004v10.677h-3.961V.19h5.966q1.792 0 3.093.637 1.313.638 2.016 1.746.715 1.109.715 2.525a4.1 4.1 0 0 1-.41 1.829 4.16 4.16 0 0 1-1.16 1.44q-.763.6-1.841.93-1.067.33-2.414.331M29.653 12.789 37.27.189l2.953 1.144-7.583 12.6ZM37.27.189h3.962v13.744H37.27Zm-8.591 0h3.961v13.744H28.68ZM49.354 8.388h-3.833l-.023-2.513h3.387q.633 0 1.02-.141.387-.142.563-.413.176-.283.176-.708 0-.496-.176-.79a.92.92 0 0 0-.527-.437q-.352-.13-.915-.13h-1.922v10.677h-3.962V.19h5.485q1.431 0 2.532.236 1.115.235 1.887.708a3.2 3.2 0 0 1 1.172 1.192q.399.718.399 1.674a3.8 3.8 0 0 1-.363 1.616q-.364.78-1.278 1.263-.902.472-2.555.437Zm-.164 5.545h-4.524l1.207-3.056h3.317q.668 0 1.055-.176.387-.19.54-.472.163-.284.163-.555 0-.413-.152-.696a1 1 0 0 0-.504-.437q-.351-.153-.938-.153H46.33l.012-2.513h3.481l.938 1.038q1.594-.141 2.496.343.903.471 1.266 1.238.375.755.375 1.499 0 1.038-.363 1.781-.352.744-1.067 1.227-.703.472-1.781.708-1.066.224-2.497.224M62.61 4.542l-3.153 9.391h-3.985L60.77.19h2.742Zm3.376 9.391-3.27-9.367L61.79.189h2.79l5.379 13.744Zm.046-5.12v2.713h-7.278V8.813ZM77.612.189v13.744h-3.985V.19Zm4.337 0v3.067H69.42V.19ZM93.259 5.675v3.067H85.78V5.675ZM87.21.189v13.744H83.25V.19Zm8.58 0v13.744h-3.938V.19ZM103.725 4.542l-3.153 9.391h-3.985L101.885.19h2.742Zm3.375 9.391-3.269-9.367-.926-4.377h2.789l5.38 13.744Zm.047-5.12v2.713h-7.278V8.813ZM133.987 10.866v3.067h-13.713v-3.067ZM129.193.189v13.744h-3.973V.19Zm7.349 0v13.744h-3.961V.19Zm-14.709 0v13.744h-3.962V.19ZM142.414.189v13.744h-3.962V.19Zm7.829 0-4.418 8.8h-3.939l-.445-3.715h2.356l1.969-5.085Zm-4.29 13.744-2.508-5.698 3.2-2.171 4.043 7.87Z"/><path fill="#fff" d="M164.331 6.83v.472q0 1.57-.481 2.832a6.2 6.2 0 0 1-1.359 2.159 6 6 0 0 1-2.075 1.357q-1.196.472-2.625.472-1.453 0-2.661-.472a6 6 0 0 1-2.074-1.357 6.2 6.2 0 0 1-1.36-2.159q-.48-1.262-.48-2.831V6.83q0-1.581.469-2.832a6.3 6.3 0 0 1 1.348-2.159 5.9 5.9 0 0 1 2.074-1.369Q156.315 0 157.768 0q1.43 0 2.625.472t2.074 1.368A6.1 6.1 0 0 1 163.839 4q.492 1.251.492 2.832m-3.985.473v-.484q0-.908-.176-1.604-.176-.708-.515-1.192a2.2 2.2 0 0 0-.809-.731 2.2 2.2 0 0 0-1.078-.26q-.645 0-1.137.26a2.1 2.1 0 0 0-.797.731q-.316.484-.481 1.192a7.6 7.6 0 0 0-.152 1.604v.484q0 .884.152 1.593.165.695.492 1.191.329.495.809.755a2.4 2.4 0 0 0 1.137.26q.597 0 1.067-.26a2.25 2.25 0 0 0 .808-.755 3.8 3.8 0 0 0 .504-1.192 6.6 6.6 0 0 0 .176-1.593"/><path fill="#fff" d="M175.793.189v3.067h-6.727V.19Zm2.743 0v13.744h-3.973V.19Zm-10.583 0h3.984l-.246 5.816q-.07 1.782-.293 3.103t-.656 2.253q-.422.921-1.09 1.487-.667.566-1.641.826-.961.26-2.274.26h-.48l-.082-3.08.387-.07q.48-.084.82-.249.352-.176.586-.519.246-.342.398-.92.165-.59.258-1.51.094-.92.141-2.242ZM186.471 4.542l-3.153 9.391h-3.985L184.631.19h2.742Zm3.375 9.391-3.27-9.367-.926-4.377h2.79l5.379 13.744Zm.047-5.12v2.713h-7.278V8.813ZM13.115 30.993v.472q0 1.57-.48 2.831a6.2 6.2 0 0 1-1.36 2.159A6 6 0 0 1 9.2 37.812q-1.195.471-2.625.472-1.454 0-2.66-.472a6 6 0 0 1-2.075-1.357 6.2 6.2 0 0 1-1.36-2.159Q0 33.034 0 31.465v-.472q0-1.581.469-2.832.48-1.262 1.348-2.159a5.9 5.9 0 0 1 2.075-1.368q1.206-.472 2.66-.472 1.43 0 2.625.472 1.196.471 2.075 1.368a6.1 6.1 0 0 1 1.371 2.159q.492 1.251.492 2.832m-3.985.472v-.484q0-.908-.176-1.605-.176-.708-.515-1.191a2.2 2.2 0 0 0-.809-.731 2.2 2.2 0 0 0-1.078-.26q-.645 0-1.137.26a2.1 2.1 0 0 0-.797.731q-.317.484-.48 1.191a7.6 7.6 0 0 0-.152 1.604v.484q-.001.885.151 1.593.165.696.493 1.192.327.495.808.755.492.26 1.137.26.598 0 1.067-.26.48-.26.808-.755a3.9 3.9 0 0 0 .504-1.192 6.6 6.6 0 0 0 .176-1.593"/><path fill="#fff" d="M24.578 24.35v3.067H17.85v-3.067Zm2.742 0v13.744h-3.973V24.35Zm-10.583 0h3.985l-.247 5.817q-.07 1.782-.293 3.103t-.656 2.253q-.422.92-1.09 1.486-.668.567-1.64.826-.963.26-2.274.26h-.48l-.083-3.08.387-.07q.48-.083.82-.248.351-.176.586-.519.246-.342.399-.92a9.3 9.3 0 0 0 .258-1.51q.093-.92.14-2.242ZM39.544 35.04v3.056h-7.876v-3.056ZM33.18 24.35v13.744h-3.962V24.35Zm5.368 5.109v3.067h-6.88V29.46Zm1.055-5.108v3.067h-7.935v-3.067ZM50.737 29.837v3.067H43.26v-3.067ZM44.69 24.35v13.744h-3.962V24.35Zm8.579 0v13.744h-3.938V24.35ZM56.14 36.95l7.619-12.6 2.953 1.145-7.583 12.6Zm7.619-12.6h3.961v13.744H63.76Zm-8.591 0h3.961v13.744h-3.961ZM81.82 32.55h-3.832l-.024-2.513h3.387q.633 0 1.02-.142t.562-.412q.176-.284.176-.708 0-.495-.176-.79a.92.92 0 0 0-.527-.437q-.353-.13-.915-.13H79.57v10.677h-3.962V24.35h5.485q1.43 0 2.533.236 1.112.236 1.887.707a3.2 3.2 0 0 1 1.172 1.192q.398.72.398 1.675a3.8 3.8 0 0 1-.363 1.616q-.363.78-1.278 1.263-.902.472-2.555.436Zm-.164 5.545h-4.524l1.207-3.056h3.317q.668 0 1.054-.177.387-.189.54-.472.164-.282.164-.554 0-.413-.153-.696a1 1 0 0 0-.504-.436q-.352-.154-.937-.154h-3.024l.012-2.513h3.48l.938 1.038q1.594-.141 2.497.342.902.472 1.265 1.24.375.754.375 1.498 0 1.037-.363 1.781-.351.742-1.066 1.227-.704.472-1.782.708-1.067.224-2.496.224M95.931 29.683v3.067h-4.032v-3.067Zm1.324 3.61h3.962q-.058 1.523-.856 2.643-.785 1.12-2.168 1.734-1.371.614-3.188.614-1.524 0-2.707-.46a5.46 5.46 0 0 1-1.993-1.357q-.81-.885-1.23-2.147-.422-1.262-.422-2.867v-.448q0-1.605.445-2.867.445-1.275 1.266-2.16a5.4 5.4 0 0 1 1.97-1.357q1.147-.471 2.554-.471 1.992 0 3.352.673 1.371.672 2.121 1.828t.879 2.62h-3.95a2.1 2.1 0 0 0-.223-1.003q-.222-.473-.75-.756-.525-.295-1.43-.295-.561 0-.995.225a1.75 1.75 0 0 0-.703.672q-.282.46-.434 1.18-.14.708-.14 1.699v.46q0 1.026.128 1.758.13.72.41 1.168.294.435.75.649.457.2 1.102.2.692 0 1.196-.189.515-.2.797-.625.28-.437.257-1.12M105.143 24.35h3.938l-.011 4.401q-.012 1.911-.317 3.374-.304 1.452-.856 2.501-.539 1.05-1.265 1.758a6 6 0 0 1-1.559 1.109 7.4 7.4 0 0 1-1.746.602h-.422l-.082-3.056h.304q.703-.708 1.102-1.356.41-.66.598-1.369.188-.72.234-1.593.059-.885.059-2.052Zm1.078 0h9.705v13.744h-3.962V27.418h-5.743Zm-4.219 10.678h15.823V42h-3.95v-3.905h-7.923V42h-3.95ZM126.779 29.683v3.067h-4.032v-3.067Zm1.324 3.61h3.962q-.058 1.523-.856 2.643-.785 1.12-2.168 1.734-1.371.614-3.188.614-1.524 0-2.707-.46a5.45 5.45 0 0 1-1.993-1.357q-.809-.885-1.23-2.147-.422-1.262-.422-2.867v-.448q0-1.605.445-2.867.446-1.275 1.266-2.16a5.4 5.4 0 0 1 1.969-1.357q1.149-.471 2.555-.471 1.992 0 3.352.673 1.371.672 2.121 1.828t.879 2.62h-3.949a2.1 2.1 0 0 0-.223-1.003q-.224-.473-.75-.756-.528-.295-1.43-.295-.562 0-.996.225a1.75 1.75 0 0 0-.704.672q-.281.46-.433 1.18-.141.708-.141 1.699v.46q0 1.026.129 1.758.13.72.41 1.168.294.435.75.649.457.2 1.102.2.692 0 1.196-.189.515-.2.796-.625.282-.437.258-1.12M139.449 33.789h-3.587V30.72h3.587q.633 0 1.054-.188.423-.19.622-.52.21-.33.211-.731 0-.507-.211-.92a1.6 1.6 0 0 0-.622-.684q-.421-.26-1.054-.26h-2.005v10.677h-3.961V24.35h5.966q1.793 0 3.094.637 1.313.636 2.016 1.746.715 1.108.715 2.524a4.1 4.1 0 0 1-1.571 3.268q-.762.602-1.84.932-1.067.33-2.414.33M157.041 29.837v3.067h-7.478v-3.067Zm-6.048-5.486v13.744h-3.961V24.35Zm8.579 0v13.744h-3.938V24.35ZM165.702 24.35v13.744h-3.961V24.35ZM171.832 24.35v13.744h-3.962V24.35Zm7.829 0-4.418 8.802h-3.938l-.446-3.717h2.356l1.969-5.084Zm-4.29 13.745-2.508-5.698 3.2-2.171 4.044 7.869Z"/><path fill="#fff" d="M193.749 30.993v.472q0 1.57-.481 2.831a6.2 6.2 0 0 1-1.359 2.159 6 6 0 0 1-2.075 1.357q-1.196.471-2.625.472-1.454 0-2.66-.472a6 6 0 0 1-2.075-1.357 6.2 6.2 0 0 1-1.36-2.159q-.48-1.262-.48-2.831v-.472q0-1.581.469-2.832a6.3 6.3 0 0 1 1.348-2.159 5.9 5.9 0 0 1 2.074-1.368q1.208-.472 2.661-.472 1.43 0 2.625.472 1.195.471 2.074 1.368a6.1 6.1 0 0 1 1.372 2.159q.492 1.251.492 2.832m-3.985.472v-.484q0-.908-.176-1.605-.176-.708-.515-1.191a2.2 2.2 0 0 0-.809-.731 2.2 2.2 0 0 0-1.078-.26 2.4 2.4 0 0 0-1.137.26 2.1 2.1 0 0 0-.797.731q-.316.484-.481 1.191a7.6 7.6 0 0 0-.152 1.604v.484q0 .885.152 1.593.165.696.492 1.192.329.495.809.755a2.4 2.4 0 0 0 1.137.26 2.17 2.17 0 0 0 1.875-1.015 3.8 3.8 0 0 0 .504-1.192 6.6 6.6 0 0 0 .176-1.593"/><path fill="#fff" d="M201.484 32.55h-3.832l-.024-2.513h3.388q.632 0 1.019-.142t.563-.412q.176-.284.176-.708 0-.495-.176-.79a.92.92 0 0 0-.528-.437q-.351-.13-.914-.13h-1.922v10.677h-3.961V24.35h5.485q1.43 0 2.531.236 1.115.236 1.887.707.774.472 1.172 1.192.399.72.399 1.675 0 .838-.363 1.616-.364.78-1.278 1.263-.903.472-2.555.436Zm-.164 5.545h-4.524l1.207-3.056h3.317q.668 0 1.055-.177.387-.189.539-.472.165-.282.164-.554 0-.413-.152-.696a1 1 0 0 0-.504-.436q-.351-.154-.938-.154h-3.023l.011-2.513h3.481l.938 1.038q1.594-.141 2.496.342.903.472 1.266 1.24.375.754.375 1.498 0 1.037-.363 1.781a3.03 3.03 0 0 1-1.067 1.227q-.703.472-1.781.708-1.066.224-2.497.224"/><path fill="#fff" d="M221.432 30.993v.472q0 1.57-.48 2.831a6.2 6.2 0 0 1-1.36 2.159 6 6 0 0 1-2.074 1.357q-1.195.471-2.626.472-1.452 0-2.66-.472a6 6 0 0 1-2.075-1.357 6.2 6.2 0 0 1-1.359-2.159q-.48-1.262-.481-2.831v-.472q0-1.581.469-2.832a6.3 6.3 0 0 1 1.348-2.159 5.9 5.9 0 0 1 2.075-1.368q1.206-.472 2.66-.472 1.43 0 2.625.472 1.196.471 2.075 1.368a6.1 6.1 0 0 1 1.371 2.159q.492 1.251.492 2.832m-3.984.472v-.484q0-.908-.176-1.605-.175-.708-.516-1.191a2.2 2.2 0 0 0-.809-.731 2.2 2.2 0 0 0-1.078-.26 2.4 2.4 0 0 0-1.137.26q-.48.247-.797.73-.317.484-.48 1.192a7.5 7.5 0 0 0-.153 1.604v.484q0 .885.153 1.593.163.696.492 1.192.328.495.809.755a2.4 2.4 0 0 0 1.136.26q.598 0 1.067-.26.48-.26.809-.755a3.8 3.8 0 0 0 .504-1.192 6.6 6.6 0 0 0 .176-1.593"/><path fill="#fff" d="M227.187 24.35v13.744h-3.961V24.35Zm-6.809-2.713q0-.66.527-1.109a1.83 1.83 0 0 1 1.242-.46q.727 0 1.243.46.527.448.527 1.11 0 .66-.527 1.12a1.83 1.83 0 0 1-1.243.448q-.714 0-1.242-.448-.528-.46-.527-1.12m6.082 0q0-.66.528-1.109.527-.46 1.242-.46.727 0 1.243.46.527.448.527 1.11 0 .66-.527 1.12a1.83 1.83 0 0 1-1.243.448q-.715 0-1.242-.448-.528-.46-.528-1.12"/><path fill="#883cda" fill-rule="evenodd" d="M251.175 13.077c-2.564 1.174-7.96 2.364-9.029-2.275s3.988-6.663 6.649-7.095c5.688-.655 17.913-2.028 24.739 2.627.575.448 1.425 1.241 2.13 2.27 3.932 6.432 1.923 18.088.963 23.664l-.055.318c-.578 2.608-2.895 7.499-7.542 6.198s-3.16-6.57-1.835-9.043c1.223-2.337 2.341-8.03 1.631-8.738-.306-.305-2.039-1.93-7.746 7.315-4.232 6.855-9.374 5.28-11.889 3.315l-.581-.572c-1.982-2.42-3.825-7.895 3.68-11.896 9.629-5.132 8.079-6.921 7.787-7.238-.676-.735-6.48.068-8.902 1.15" clip-rule="evenodd"/></svg>