<svg xmlns="http://www.w3.org/2000/svg" width="35" height="35" fill="none" viewBox="0 0 35 35"><g clip-path="url(#clip0_318_15849)"><path fill="#f5ffc0" d="M8.75 17.5A8.75 8.75 0 1 0 8.75 35 8.75 8.75 0 0 0 8.75 17.5m25.908-3.75-7.31-12.5A2.547 2.547 0 0 0 22.964 1.25l-7.309 12.5c-.973 1.666.245 3.75 2.194 3.75h14.617c1.948 0 3.167-2.084 2.193-3.75m-1.846 5.938H21.875a2.187 2.187 0 0 0-2.188 2.187v10.938A2.19 2.19 0 0 0 21.875 35h10.937A2.187 2.187 0 0 0 35 32.812V21.874a2.187 2.187 0 0 0-2.188-2.187"/></g><defs><clipPath id="clip0_318_15849"><path fill="#fff" d="M0 0h35v35H0Z"/></clipPath></defs></svg>