<svg xmlns="http://www.w3.org/2000/svg" width="35" height="35" fill="none" viewBox="0 0 35 35"><g clip-path="url(#clip0_318_15842)"><path fill="#acffd7" d="M24.953 21.918 17.5 28.439l-7.453-6.521C4.46 22.13 0 26.128 0 31.064v.656c0 1.812 1.68 3.282 3.75 3.282h27.5c2.07 0 3.75-1.47 3.75-3.282v-.656c0-4.935-4.46-8.934-10.047-9.146M1.063 5.457l.5.102v3.992c-.547.288-.938.787-.938 1.388 0 .574.36 1.053.867 1.347L.273 16.545c-.132.471.164.957.594.957h3.266c.43 0 .726-.486.594-.957l-1.22-4.26c.509-.293.868-.772.868-1.346 0-.601-.39-1.1-.938-1.387V5.956l5.157 1.087C7.922 8.219 7.5 9.53 7.5 10.939c0 4.833 4.477 8.75 10 8.75s10-3.917 10-8.75c0-1.408-.414-2.72-1.094-3.896l7.524-1.586c1.422-.301 1.422-1.853 0-2.154L19.055.16A7.65 7.65 0 0 0 15.953.159L1.063 3.297c-1.415.3-1.415 1.859 0 2.16"/></g><defs><clipPath id="clip0_318_15842"><path fill="#fff" d="M0 0h35v35H0Z"/></clipPath></defs></svg>