<svg xmlns="http://www.w3.org/2000/svg" width="49" height="57" fill="none" viewBox="0 0 49 57"><path fill="#fff" d="M44.688 56.875h-4.063v-6.094a10.17 10.17 0 0 0-10.156-10.156H18.28A10.17 10.17 0 0 0 8.125 50.781v6.094H4.062v-6.094a14.236 14.236 0 0 1 14.219-14.219H30.47a14.236 14.236 0 0 1 14.219 14.219ZM2.031 8.125A2.03 2.03 0 0 0 0 10.156v18.281h4.063V10.157a2.03 2.03 0 0 0-2.031-2.031"/><path fill="#fff" d="M0 0v4.063h10.156v14.219a14.219 14.219 0 0 0 28.438 0V4.062H48.75V0Zm14.219 4.063H34.53v6.094H14.22Zm10.156 24.375a10.156 10.156 0 0 1-10.156-10.156V14.22H34.53v4.062a10.156 10.156 0 0 1-10.156 10.156"/></svg>