<svg xmlns="http://www.w3.org/2000/svg" width="32" height="32" fill="none" viewBox="0 0 32 32"><g clip-path="url(#clip0_10940_1337)"><path fill="#fff" fill-rule="evenodd" d="M0 16c0 8.837 7.163 16 16 16s16-7.163 16-16S24.837 0 16 0 0 7.163 0 16m13.067 7.333.272-4.078 7.419-6.696c.326-.289-.071-.43-.503-.167l-9.157 5.776-3.955-1.234c-.854-.262-.86-.849.192-1.27L22.747 9.72c.704-.32 1.383.169 1.114 1.246l-2.624 12.368c-.183.88-.714 1.09-1.45.683l-3.998-2.953-1.922 1.868-.018.018c-.215.21-.393.382-.782.382" clip-rule="evenodd"/></g><defs><clipPath id="clip0_10940_1337"><path fill="#fff" d="M0 0h32v32H0Z"/></clipPath></defs></svg>