<svg xmlns="http://www.w3.org/2000/svg" width="32" height="32" fill="none" viewBox="0 0 32 32"><g clip-path="url(#clip0_10940_1334)"><path fill="#fff" fill-rule="evenodd" d="M16 0C7.163 0 0 7.163 0 16s7.163 16 16 16 16-7.163 16-16S24.837 0 16 0m-.446 13.559-.033-.554c-.1-1.435.783-2.746 2.182-3.254.515-.18 1.388-.203 1.959-.045.224.068.649.294.951.497l.548.373.605-.192c.336-.102.783-.271.985-.384.19-.102.358-.159.358-.125 0 .192-.414.848-.761 1.21-.47.508-.336.553.615.214.571-.192.582-.192.47.023-.067.113-.414.508-.783.87-.627.62-.66.689-.66 1.208 0 .803-.38 2.475-.761 3.39-.706 1.718-2.216 3.491-3.727 4.384-2.127 1.254-4.958 1.57-7.342.836-.795-.248-2.16-.881-2.16-.994 0-.034.414-.08.918-.09a6.3 6.3 0 0 0 3-.836l.604-.362-.694-.238c-.985-.338-1.87-1.118-2.093-1.852-.067-.238-.045-.25.582-.25l.649-.01-.549-.26c-.649-.328-1.242-.882-1.533-1.446-.213-.407-.481-1.436-.403-1.515.023-.033.258.034.526.125.772.282.873.214.426-.26-.84-.859-1.097-2.136-.694-3.345l.19-.542.739.735c1.51 1.48 3.29 2.361 5.327 2.62Z" clip-rule="evenodd"/></g><defs><clipPath id="clip0_10940_1334"><path fill="#fff" d="M0 0h32v32H0Z"/></clipPath></defs></svg>