<svg xmlns="http://www.w3.org/2000/svg" width="32" height="32" fill="none" viewBox="0 0 32 32"><g fill="#fff" fill-rule="evenodd" clip-path="url(#clip0_10940_1340)" clip-rule="evenodd"><path d="M0 16c0 8.837 7.163 16 16 16s16-7.163 16-16S24.837 0 16 0 0 7.163 0 16m26.041-.612c-.002 5.244-4.268 9.512-9.514 9.514h-.004c-1.592 0-3.156-.4-4.546-1.158l-5.044 1.323 1.35-4.93a9.5 9.5 0 0 1-1.27-4.756c.002-5.247 4.27-9.514 9.514-9.514a9.45 9.45 0 0 1 6.73 2.79 9.46 9.46 0 0 1 2.784 6.73"/><path d="m9.218 22.806 2.992-.786.29.172a7.9 7.9 0 0 0 4.025 1.102h.003c4.358 0 7.905-3.547 7.907-7.908 0-2.113-.82-4.1-2.314-5.594a7.85 7.85 0 0 0-5.59-2.32c-4.362 0-7.91 3.548-7.912 7.908 0 1.494.418 2.95 1.21 4.208l.188.3Zm11.777-5.37c.166.08.278.133.325.213.06.1.06.575-.138 1.13-.198.556-1.148 1.063-1.605 1.13-.41.062-.928.088-1.497-.093-.345-.11-.788-.256-1.355-.501-2.229-.962-3.735-3.122-4.02-3.53l-.042-.059-.001-.003c-.126-.168-.97-1.293-.97-2.457 0-1.095.539-1.669.787-1.933l.046-.05a.87.87 0 0 1 .634-.297c.158 0 .317.001.455.008h.054c.138-.001.311-.002.481.407l.263.637c.204.498.43 1.049.47 1.128.06.12.1.258.02.417l-.033.067c-.06.122-.104.211-.204.33q-.06.07-.122.146c-.082.1-.164.199-.235.27-.12.118-.243.247-.104.485s.615 1.016 1.322 1.647c.76.677 1.42.964 1.755 1.109q.098.042.157.07c.238.12.376.1.515-.059s.594-.694.753-.932c.158-.238.317-.198.535-.119.217.08 1.386.655 1.624.774Z"/></g><defs><clipPath id="clip0_10940_1340"><path fill="#fff" d="M0 0h32v32H0Z"/></clipPath></defs></svg>