<svg xmlns="http://www.w3.org/2000/svg" width="32" height="32" fill="none" viewBox="0 0 32 32"><g fill="#fff" clip-path="url(#clip0_10940_1330)"><path fill-rule="evenodd" d="M16 0C7.163 0 0 7.163 0 16s7.163 16 16 16 16-7.163 16-16S24.837 0 16 0m6.668 10.5a2.17 2.17 0 0 1 1.509 1.55c.356 1.365.356 4.217.356 4.217s0 2.85-.356 4.218a2.17 2.17 0 0 1-1.509 1.55c-1.331.365-6.668.365-6.668.365s-5.337 0-6.668-.366a2.17 2.17 0 0 1-1.509-1.55c-.356-1.366-.356-4.217-.356-4.217s0-2.852.356-4.218a2.17 2.17 0 0 1 1.509-1.55c1.331-.366 6.668-.366 6.668-.366s5.337 0 6.668.367" clip-rule="evenodd"/><path d="M14.4 19.2v-5.333l4.267 2.667Z"/></g><defs><clipPath id="clip0_10940_1330"><path fill="#fff" d="M0 0h32v32H0Z"/></clipPath></defs></svg>