<svg width="32" height="32" viewBox="0 0 32 32" fill="none" xmlns="http://www.w3.org/2000/svg">
<g clip-path="url(#clip0_10940_1322)">
<path fill-rule="evenodd" clip-rule="evenodd" d="M16 0C7.16347 0 0 7.16347 0 16C0 24.8365 7.16347 32 16 32C24.8365 32 32 24.8365 32 16C32 7.16347 24.8365 0 16 0ZM12.4822 7.5182C13.3924 7.4768 13.6833 7.46667 16.0008 7.46667H15.9981C18.3164 7.46667 18.6061 7.4768 19.5164 7.5182C20.4249 7.5598 21.0453 7.70367 21.5893 7.91467C22.1511 8.13247 22.6257 8.424 23.1004 8.89867C23.5751 9.373 23.8667 9.84907 24.0853 10.4103C24.2951 10.9529 24.4391 11.573 24.4818 12.4815C24.5227 13.3917 24.5333 13.6825 24.5333 16.0001C24.5333 18.3176 24.5227 18.6077 24.4818 19.518C24.4391 20.4261 24.2951 21.0463 24.0853 21.5891C23.8667 22.1502 23.5751 22.6263 23.1004 23.1006C22.6263 23.5753 22.1509 23.8675 21.5899 24.0855C21.0469 24.2965 20.4261 24.4403 19.5177 24.4819C18.6074 24.5234 18.3175 24.5335 15.9997 24.5335C13.6824 24.5335 13.3917 24.5234 12.4815 24.4819C11.5732 24.4403 10.9529 24.2965 10.41 24.0855C9.84907 23.8675 9.373 23.5753 8.89887 23.1006C8.42433 22.6263 8.1328 22.1502 7.91467 21.5889C7.7038 21.0463 7.56 20.4263 7.5182 19.5178C7.477 18.6076 7.46667 18.3176 7.46667 16.0001C7.46667 13.6825 7.47733 13.3915 7.51807 12.4813C7.55893 11.5732 7.70293 10.9529 7.91447 10.4101C8.13313 9.84907 8.42473 9.373 8.8994 8.89867C9.37373 8.4242 9.8498 8.1326 10.4111 7.91467C10.9537 7.70367 11.5737 7.5598 12.4822 7.5182Z" fill="white"/>
<path fill-rule="evenodd" clip-rule="evenodd" d="M15.2353 9.00604C15.3839 9.00584 15.5438 9.00591 15.7163 9.00597L16.0008 9.00604C18.2792 9.00604 18.5493 9.01424 19.449 9.05511C20.281 9.09317 20.7325 9.23217 21.0333 9.34897C21.4316 9.50364 21.7155 9.68857 22.014 9.98724C22.3127 10.2859 22.4975 10.5704 22.6526 10.9686C22.7694 11.269 22.9086 11.7206 22.9465 12.5526C22.9873 13.4522 22.9962 13.7224 22.9962 15.9997C22.9962 18.2771 22.9873 18.5473 22.9465 19.4469C22.9084 20.2789 22.7694 20.7304 22.6526 21.0309C22.4979 21.4291 22.3127 21.7127 22.014 22.0112C21.7153 22.3098 21.4317 22.4948 21.0333 22.6494C20.7329 22.7668 20.281 22.9054 19.449 22.9434C18.5494 22.9844 18.2792 22.9932 16.0008 22.9932C13.7222 22.9932 13.4521 22.9844 12.5525 22.9434C11.7205 22.905 11.269 22.766 10.968 22.6492C10.5698 22.4946 10.2853 22.3096 9.98666 22.011C9.68799 21.7123 9.50313 21.4286 9.34806 21.0302C9.23126 20.7298 9.09206 20.2782 9.05419 19.4462C9.01333 18.5466 9.00513 18.2764 9.00513 15.9976C9.00513 13.7188 9.01333 13.45 9.05419 12.5504C9.09226 11.7184 9.23126 11.2669 9.34806 10.9661C9.50273 10.5678 9.68799 10.2834 9.98666 9.98477C10.2853 9.68611 10.5698 9.50117 10.968 9.34617C11.2688 9.22884 11.7205 9.09017 12.5525 9.05191C13.3397 9.01637 13.6449 9.00571 15.2353 9.00391V9.00604ZM20.5559 10.423C19.9905 10.423 19.5318 10.8811 19.5318 11.4466C19.5318 12.012 19.9905 12.4706 20.5559 12.4706C21.1212 12.4706 21.5799 12.012 21.5799 11.4466C21.5799 10.8813 21.1212 10.4226 20.5559 10.4226V10.423ZM11.6185 16.0017C11.6185 13.5816 13.5805 11.6195 16.0006 11.6194C18.4207 11.6194 20.3823 13.5816 20.3823 16.0017C20.3823 18.4218 18.4209 20.3831 16.0008 20.3831C13.5807 20.3831 11.6185 18.4218 11.6185 16.0017Z" fill="white"/>
<path d="M16.0008 13.1562C17.5717 13.1562 18.8453 14.4297 18.8453 16.0007C18.8453 17.5716 17.5717 18.8452 16.0008 18.8452C14.4298 18.8452 13.1564 17.5716 13.1564 16.0007C13.1564 14.4297 14.4298 13.1562 16.0008 13.1562Z" fill="white"/>
</g>
<defs>
<clipPath id="clip0_10940_1322">
<rect width="32" height="32" fill="white"/>
</clipPath>
</defs>
</svg>
