<svg width="32" height="32" viewBox="0 0 32 32" fill="none" xmlns="http://www.w3.org/2000/svg">
<g clip-path="url(#clip0_10940_1340)">
<path fill-rule="evenodd" clip-rule="evenodd" d="M0 16C0 24.8365 7.16347 32 16 32C24.8365 32 32 24.8365 32 16C32 7.16347 24.8365 0 16 0C7.16347 0 0 7.16347 0 16ZM26.0414 15.3877C26.0393 20.6322 21.773 24.8995 16.5274 24.9017H16.5235C14.9311 24.9011 13.3665 24.5016 11.9769 23.7437L6.93333 25.0667L8.28307 20.1365C7.45047 18.6937 7.0124 17.057 7.01307 15.3801C7.0152 10.1345 11.2832 5.86667 16.5273 5.86667C19.0724 5.86777 21.4612 6.8586 23.2575 8.65693C25.0537 10.4552 26.0425 12.8455 26.0414 15.3877Z" fill="white"/>
<path fill-rule="evenodd" clip-rule="evenodd" d="M9.21759 22.8055L12.2105 22.0203L12.4993 22.1917C13.7134 22.9122 15.1051 23.2934 16.5241 23.294H16.5273C20.8859 23.294 24.4332 19.7465 24.435 15.3862C24.4358 13.2732 23.6141 11.2865 22.1211 9.79172C20.6281 8.29699 18.6426 7.47339 16.5305 7.47266C12.1685 7.47266 8.62112 11.0198 8.61939 15.3798C8.61879 16.874 9.03685 18.3291 9.82845 19.5881L10.0165 19.8873L9.21759 22.8055ZM20.9949 17.4351C21.1607 17.5153 21.2727 17.5693 21.3205 17.6491C21.3799 17.7483 21.3799 18.2243 21.1819 18.7797C20.9837 19.3349 20.034 19.8417 19.5772 19.9099C19.1677 19.9712 18.6494 19.9967 18.0799 19.8157C17.7346 19.7062 17.2919 19.5599 16.7247 19.315C14.4961 18.3527 12.9899 16.1927 12.7053 15.7844C12.6854 15.7558 12.6714 15.7358 12.6637 15.7255L12.6617 15.7229C12.5359 15.555 11.6929 14.4303 11.6929 13.2663C11.6929 12.1713 12.2309 11.5973 12.4785 11.3331C12.4954 11.315 12.511 11.2983 12.525 11.2831C12.7429 11.0451 13.0005 10.9856 13.1589 10.9856C13.3174 10.9856 13.476 10.9871 13.6145 10.994C13.6316 10.9949 13.6494 10.9947 13.6678 10.9947C13.8063 10.9938 13.979 10.9928 14.1494 11.4021C14.2149 11.5596 14.3109 11.7931 14.412 12.0393C14.6165 12.5373 14.8426 13.0876 14.8823 13.1672C14.9418 13.2862 14.9814 13.425 14.9021 13.5837C14.8903 13.6075 14.8793 13.63 14.8687 13.6514C14.8093 13.7729 14.7655 13.8623 14.6645 13.9803C14.6247 14.0267 14.5837 14.0767 14.5426 14.1266C14.4609 14.2262 14.3791 14.3258 14.3079 14.3967C14.1889 14.5153 14.0649 14.6439 14.2036 14.8819C14.3423 15.1199 14.8194 15.8983 15.5261 16.5287C16.2858 17.2063 16.9461 17.4927 17.2807 17.6379C17.3461 17.6663 17.399 17.6892 17.4379 17.7087C17.6755 17.8277 17.8142 17.8078 17.9529 17.6491C18.0915 17.4905 18.5471 16.955 18.7056 16.717C18.864 16.4791 19.0226 16.5187 19.2405 16.5981C19.4584 16.6775 20.6271 17.2525 20.8649 17.3715C20.9113 17.3947 20.9547 17.4157 20.9949 17.4351Z" fill="white"/>
</g>
<defs>
<clipPath id="clip0_10940_1340">
<rect width="32" height="32" fill="white"/>
</clipPath>
</defs>
</svg>
